#define amiwmlogo_width 237
#define amiwmlogo_height 237
static char amiwmlogo_bits[] = {
 0x00,0x00,0x00,0x00,0x00,0x00,0x00,0x00,0x00,0x00,0x00,0x00,0x00,0x00,0x00,
 0x00,0x00,0x00,0x00,0x00,0x00,0x00,0x00,0x00,0x80,0x10,0x11,0x91,0x24,0xe1,
 0x00,0x00,0x00,0x00,0x00,0x00,0x00,0x00,0x00,0x90,0x00,0x00,0x00,0x00,0x00,
 0x92,0x24,0x49,0x95,0x00,0x00,0x00,0x00,0x00,0x20,0xa5,0xa4,0x24,0x49,0xe2,
 0x00,0x00,0x00,0x00,0x00,0x00,0x00,0x00,0x08,0x01,0x00,0x20,0x01,0x00,0x80,
 0x00,0x40,0x00,0x20,0x02,0x00,0x00,0x00,0x00,0x10,0x12,0x4a,0x92,0x24,0xe1,
 0x00,0x00,0x00,0x00,0x00,0x10,0x92,0x24,0x21,0x40,0x05,0xf8,0x00,0x00,0x20,
 0x48,0x0a,0x55,0x80,0x00,0x00,0x00,0x00,0x00,0xa5,0x48,0x21,0x49,0x92,0xe4,
 0x00,0x00,0x00,0x20,0x22,0x41,0x00,0x00,0x00,0x08,0x10,0xf8,0x00,0x00,0x00,
 0x02,0x20,0x00,0x20,0x14,0x00,0x00,0x00,0x40,0x12,0xa5,0x94,0x24,0xa9,0xf2,
 0x00,0x20,0x44,0x02,0x00,0x00,0x00,0x00,0x00,0x01,0x02,0xfd,0x00,0x00,0x90,
 0x50,0x85,0x24,0x80,0x42,0x00,0x00,0x00,0x20,0xa4,0x10,0x4a,0xaa,0x24,0xe9,
 0x00,0x01,0x00,0x00,0x00,0x00,0x20,0x92,0x24,0x40,0x48,0xfc,0x00,0x00,0x04,
 0x04,0x20,0x08,0x00,0x10,0x02,0x00,0x00,0x4a,0x49,0x4a,0x21,0x91,0x92,0xe4,
 0x08,0x00,0x00,0x00,0x88,0x88,0x04,0x00,0x80,0x08,0x01,0xfc,0x00,0x00,0x50,
 0x11,0x89,0x12,0x00,0x48,0x09,0x00,0x80,0x24,0x12,0xa5,0x94,0x4a,0x4a,0xe0,
 0x00,0x80,0x00,0x90,0x00,0x00,0x00,0x00,0x00,0x02,0x28,0x79,0x00,0x00,0x00,
 0x00,0x20,0x00,0x00,0x20,0x20,0x00,0x50,0x92,0xa4,0x10,0x52,0x24,0x29,0xe0,
 0x00,0x04,0x10,0x01,0x00,0x00,0x90,0x24,0x09,0x20,0x02,0x04,0x00,0x00,0x4a,
 0x02,0x08,0x09,0x00,0x80,0x8a,0x00,0x00,0x49,0x01,0xca,0x8a,0xaa,0x0a,0xe0,
 0x20,0x00,0x00,0x00,0x88,0x24,0x01,0x00,0x40,0x00,0x50,0x00,0x00,0x80,0x00,
 0x00,0x40,0x04,0x00,0x40,0x50,0x0a,0xaa,0x24,0x00,0x28,0x51,0x22,0x09,0xe0,
 0x00,0x00,0x02,0x08,0x01,0x00,0x04,0x10,0x00,0x94,0x04,0x01,0x00,0x00,0xa4,
 0x00,0x00,0x01,0x00,0x00,0x05,0x41,0x11,0x12,0x00,0x80,0x4a,0x95,0x02,0xe0,
 0x02,0x21,0x40,0x20,0x00,0x00,0x40,0x02,0x25,0x01,0xa0,0x08,0x00,0x80,0x08,
 0x00,0x00,0x00,0x00,0x00,0x52,0x2a,0xa4,0x04,0x00,0x00,0x2a,0x52,0x00,0xe0,
 0x00,0x00,0x00,0x00,0x48,0x22,0x08,0x40,0x00,0x40,0x44,0x22,0x00,0x20,0x10,
 0x00,0x00,0x00,0x00,0x00,0x08,0x91,0x12,0x01,0x00,0x00,0xa0,0x29,0x00,0xe0,
 0x08,0x04,0xfc,0x7b,0x00,0xbc,0xc0,0x0b,0xe0,0x0b,0x11,0xbd,0x00,0xb8,0x02,
 0x08,0xc0,0x00,0x70,0x00,0x57,0xca,0x4f,0x00,0x00,0x00,0x00,0x00,0x00,0xe0,
 0x20,0x40,0xff,0x7f,0xe2,0x3f,0xf8,0x2f,0xfa,0x0f,0xe0,0x3f,0xe2,0x3f,0x00,
 0x0f,0xe0,0xc1,0x7f,0xe0,0x3f,0xf1,0x3f,0x00,0x00,0x00,0x00,0x00,0x00,0xe0,
 0x00,0xc0,0x0f,0x3e,0xf0,0x7f,0xfc,0x8f,0xfc,0x2f,0xf9,0x3f,0xf0,0xbf,0x82,
 0x0f,0xe0,0xc3,0x7f,0xf8,0x9f,0xfc,0x1f,0x00,0x00,0x00,0x00,0x00,0x00,0xe0,
 0x00,0xf0,0x03,0xbe,0x40,0x3f,0x9e,0x1f,0x9f,0x0f,0x00,0x1f,0x09,0x3f,0x80,
 0x0f,0xe0,0x03,0x3e,0x1c,0x5f,0x1e,0x1f,0x00,0x00,0x00,0x00,0x00,0x00,0xe0,
 0x80,0xf8,0x11,0x3e,0x04,0x1f,0x07,0x8f,0x83,0x5f,0x52,0x5f,0x40,0x1f,0x80,
 0x0f,0xe0,0x03,0x3e,0x06,0x1e,0x07,0x1e,0x00,0x00,0x00,0x00,0x00,0x00,0xe0,
 0x04,0x7a,0x00,0x3e,0x00,0x9f,0x03,0x9f,0x01,0x0f,0x00,0x9f,0x00,0x1f,0x80,
 0x07,0xe0,0x01,0x3c,0x03,0x1e,0x03,0x1e,0x00,0x00,0x00,0x00,0x00,0x00,0xe0,
 0x10,0x7c,0x00,0x9f,0x10,0xdf,0x41,0xef,0xa8,0x2f,0xa5,0x1f,0x00,0x1f,0xc0,
 0x07,0xe0,0x03,0xbe,0x01,0x9e,0x01,0x1f,0x00,0x00,0x00,0x00,0x00,0x00,0xe0,
 0x00,0x3f,0x24,0x1f,0x02,0xef,0x90,0xef,0x82,0x0f,0x80,0x4f,0x01,0x0f,0xc0,
 0x07,0xe0,0x01,0x9e,0x01,0xde,0x00,0x1f,0x00,0x00,0x00,0x00,0x00,0x00,0xe0,
 0x00,0x9f,0x00,0x1f,0x88,0x6f,0x82,0x37,0x90,0xaf,0x94,0x3f,0x80,0x0f,0xc0,
 0x07,0xe0,0x01,0xde,0x00,0x6f,0x00,0x0f,0x00,0x00,0x00,0x00,0x00,0x00,0xe0,
 0x82,0x1f,0x80,0x1f,0x80,0x3f,0x88,0x3f,0xc2,0x0f,0xc0,0xbf,0x80,0x0f,0xe0,
 0x7f,0xe0,0x06,0x7f,0x00,0x6f,0x00,0x0f,0x00,0x00,0x00,0x00,0x00,0x00,0xe0,
 0x90,0x0f,0x88,0x0f,0xa1,0x3f,0xa0,0x5f,0xc8,0x87,0x92,0xff,0x80,0x0f,0xf0,
 0x1f,0xfa,0x05,0x2f,0x00,0x3f,0x80,0x0f,0x00,0x00,0x00,0x00,0x00,0x00,0xe0,
 0xc0,0x2f,0xc1,0x4f,0x84,0x1f,0xc2,0x1f,0xc1,0x27,0xc0,0xc7,0x85,0x3f,0xf8,
 0xe3,0xff,0x14,0x3f,0x00,0x1f,0x80,0x0f,0x00,0x00,0x00,0x00,0x00,0x00,0xe0,
 0xc0,0x07,0xc0,0x0f,0xc0,0x9f,0xc0,0x0f,0xe8,0x17,0xd5,0xff,0xdf,0x3f,0xf8,
 0x5b,0x77,0xfd,0x1f,0x80,0x1f,0x80,0x07,0x00,0x00,0x00,0x00,0x00,0x00,0xe0,
 0xe4,0x07,0xe4,0x2f,0xc8,0x0f,0xc8,0x8f,0xe2,0x83,0xe0,0x3b,0xfe,0xb7,0xf8,
 0x03,0x78,0xcc,0x1f,0x80,0x0f,0xc0,0x07,0x00,0x00,0x00,0x00,0x00,0x00,0xe0,
 0xe0,0x97,0xe0,0x07,0xc1,0x4f,0xe2,0x27,0xe8,0x27,0xe4,0xdf,0xf5,0xef,0xff,
 0xa3,0x7a,0xbb,0xff,0x80,0x0f,0xc0,0x07,0x00,0x00,0x00,0x00,0x00,0x00,0xe0,
 0xe0,0x03,0xf2,0x07,0xd0,0x07,0xe0,0x07,0xf1,0xa9,0xff,0xff,0xe7,0xcf,0xff,
 0x41,0xf8,0xd1,0x0f,0xc6,0x07,0xc0,0x03,0x00,0x00,0x00,0x00,0x00,0x00,0xe0,
 0xe4,0x23,0xf0,0x57,0xe2,0x27,0xe5,0x23,0xf2,0xff,0xff,0xf7,0xe1,0x9f,0xfe,
 0x81,0x1e,0xf2,0xbf,0xdd,0x07,0xe0,0x03,0x00,0x00,0x00,0x00,0x00,0x00,0xe0,
 0xe0,0x83,0xd8,0x07,0xe0,0x03,0xe0,0x8b,0xf0,0xb7,0xe0,0xfb,0xe3,0x37,0xfe,
 0x01,0x0d,0xe1,0xff,0xff,0x07,0xe0,0x03,0x00,0x00,0x00,0x00,0x00,0x00,0xe0,
 0xe0,0x03,0xec,0x93,0xe4,0x93,0xf2,0x23,0xfd,0x49,0xf2,0x41,0xef,0xeb,0xfe,
 0x81,0x8e,0xe2,0x37,0xff,0x0f,0xe0,0x01,0x00,0x00,0x00,0x00,0x00,0x00,0xe0,
 0xe9,0x23,0xee,0xc3,0xf0,0x0b,0xf0,0x09,0xfc,0x3a,0xf1,0x69,0xed,0x43,0xfe,
 0x01,0x87,0xc0,0x17,0xe0,0x3f,0xe0,0x61,0x00,0x00,0x00,0x00,0x00,0x00,0xe0,
 0xe0,0x09,0xe7,0x63,0xf2,0xa1,0xf4,0xa1,0xfe,0xb9,0xf4,0x39,0xfa,0x87,0xf3,
 0x03,0x03,0xe0,0x33,0xe0,0x7b,0xf0,0x21,0x00,0x00,0x00,0x00,0x00,0x00,0xe0,
 0xe2,0x23,0xf3,0xf3,0xf0,0x05,0xf0,0x0a,0xfd,0x18,0xfa,0x3b,0xf4,0x81,0xf5,
 0x87,0x03,0xe1,0x23,0xe0,0xe1,0xf0,0x30,0x00,0x00,0x00,0x00,0x00,0x00,0xe0,
 0xe8,0xc3,0xf3,0x39,0xf0,0x91,0xfa,0x81,0x7c,0x4c,0xf9,0x18,0xf0,0xcb,0xf5,
 0xc7,0x04,0xe0,0x33,0xf0,0x41,0xf0,0x18,0x00,0x00,0x00,0x00,0x00,0x00,0xe0,
 0xe0,0xe7,0xf0,0x39,0xfa,0x02,0xf8,0x54,0x7e,0x2f,0xfa,0x1e,0xf0,0xf3,0xf0,
 0x7f,0x00,0xe2,0x27,0xf0,0x41,0xf8,0x0c,0x00,0x00,0x00,0x00,0x00,0x00,0xe0,
 0xe0,0x7f,0xf2,0x8f,0xf8,0x50,0xfa,0x00,0xff,0x87,0xf8,0xef,0xef,0x7f,0xf0,
 0x3f,0x00,0xf0,0x67,0xf0,0x60,0xf0,0x0f,0x00,0x00,0x00,0x00,0x00,0x00,0xe0,
 0xc9,0x3f,0xf0,0x0f,0xf8,0x85,0xf8,0xaa,0xfe,0x43,0xff,0xff,0xfe,0x1f,0xe0,
 0x3f,0x00,0xf0,0x4f,0xf0,0xe0,0xf0,0x03,0x00,0x00,0x00,0x00,0x00,0x00,0xe0,
 0x20,0x4f,0xc2,0x23,0x59,0x10,0x3c,0x20,0xfc,0xe0,0xff,0x01,0xc1,0x97,0xc2,
 0x77,0x00,0x70,0xd6,0x20,0xc0,0xe0,0x00,0x00,0x00,0x00,0x00,0x00,0x00,0xe0,
 0x02,0x00,0x10,0x40,0x00,0x44,0x81,0x4a,0x47,0xf2,0x57,0x95,0xb6,0x2e,0x08,
 0xc0,0x00,0x00,0xcc,0x0b,0xc0,0x00,0x00,0x00,0x00,0x00,0x00,0x00,0x00,0xe0,
 0x90,0x10,0x85,0x08,0x55,0x11,0x24,0x10,0x9e,0xe8,0xad,0xff,0xff,0xff,0x0a,
 0xd2,0x20,0x00,0xb8,0x2f,0xc0,0x00,0x00,0x00,0x00,0x00,0x00,0x00,0x00,0xe0,
 0x00,0x42,0x20,0x22,0x00,0x44,0x09,0x45,0x27,0xc2,0xfe,0xff,0xff,0xdf,0x10,
 0x80,0x01,0x28,0xd8,0x7a,0xc0,0x01,0x00,0x00,0x00,0x00,0x00,0x00,0x00,0xe0,
 0x4a,0x08,0x89,0x88,0x4a,0x11,0xa0,0x24,0x97,0xf0,0xff,0xff,0xff,0xbf,0x41,
 0x40,0xa3,0x90,0xb0,0x72,0xc0,0x01,0x00,0x00,0x00,0x00,0x00,0x00,0x00,0xe0,
 0x00,0x21,0x00,0x20,0x10,0x84,0x0a,0x92,0x26,0xb5,0xff,0xff,0xf7,0xff,0x03,
 0x05,0x46,0x40,0xe0,0x7b,0x80,0x01,0x00,0x00,0x00,0x00,0x00,0x00,0x00,0xe0,
 0x24,0x04,0xaa,0x0a,0x42,0x51,0xa0,0x08,0x43,0xd2,0xfe,0xff,0xdd,0xfe,0x05,
 0x50,0x85,0x72,0xb2,0x76,0xc0,0x01,0x00,0x00,0x80,0xbd,0x00,0x00,0x00,0xe0,
 0x80,0xa0,0x00,0x40,0x11,0x04,0x15,0x52,0x17,0xb9,0x7e,0xbf,0xf6,0xfd,0x8f,
 0x02,0x0a,0xc5,0x60,0x7f,0x80,0x03,0x00,0x00,0x60,0x61,0x00,0x00,0x00,0xe0,
 0x12,0x08,0x24,0x29,0x44,0xa2,0x40,0x81,0x43,0xd2,0xff,0x55,0x95,0xd6,0x17,
 0x10,0x18,0x73,0xc1,0x7d,0x80,0x01,0x00,0x00,0x10,0x60,0x00,0x00,0x00,0xe0,
 0x84,0x22,0x41,0x84,0x12,0x11,0x2a,0x54,0x17,0xa9,0xf7,0x57,0x49,0x51,0x6f,
 0x20,0x1a,0xec,0x8d,0xef,0xc0,0x03,0x00,0x00,0x04,0xc1,0x01,0x00,0x00,0xe0,
 0x20,0x44,0x14,0x21,0xa0,0x48,0x41,0x89,0x4b,0xd9,0xff,0x5f,0x20,0x84,0xbe,
 0x80,0x30,0xb4,0x15,0x7d,0x80,0x01,0x00,0x00,0x41,0x84,0x01,0x00,0x00,0xe0,
 0x89,0x10,0x41,0x94,0x0a,0x25,0x94,0xa4,0x83,0xd8,0xff,0x3f,0x01,0x00,0xbd,
 0x41,0x70,0x58,0x33,0x6f,0x80,0x03,0x00,0x40,0x10,0x00,0x02,0x00,0x00,0xe0,
 0x02,0x42,0x14,0x49,0x52,0x90,0x22,0x92,0x4b,0xc8,0xde,0x7f,0x00,0x40,0xf6,
 0x02,0xe2,0xe8,0x57,0xea,0x80,0x01,0x00,0x20,0x8e,0x00,0x02,0x00,0x00,0xf8,
 0xa8,0x08,0x81,0x24,0x89,0x4a,0x94,0xa4,0x93,0xec,0xeb,0xff,0x00,0x00,0xdd,
 0x4f,0xd4,0xe0,0x26,0x2e,0x80,0x03,0x00,0x90,0x47,0x05,0x04,0x80,0x00,0xfe,
 0x01,0x42,0x28,0x92,0x24,0x91,0x4a,0xc9,0x41,0xa4,0xf5,0xff,0x87,0xb4,0xd6,
 0x0b,0xc8,0x43,0xaf,0x7c,0x80,0x01,0x00,0xc8,0xe0,0x03,0x00,0xfe,0x83,0xe6,
 0x94,0x10,0x85,0x48,0x92,0x24,0x21,0xa4,0x93,0xec,0xf9,0xff,0x2b,0x4a,0x5d,
 0x1f,0x91,0x87,0x4b,0xfa,0x80,0x03,0x00,0x7e,0xaa,0x4f,0x10,0x0f,0x56,0xfb,
 0x20,0x4a,0x20,0x25,0x55,0x92,0x94,0xca,0x4b,0xe4,0xd4,0xfe,0x9f,0xaa,0x5c,
 0x3f,0x24,0x8f,0xae,0x70,0x80,0x03,0x00,0x0f,0xdf,0x2c,0xd0,0x03,0xfa,0xfd,
 0x89,0x20,0x95,0x50,0x91,0x4a,0x4a,0xd1,0xad,0xf6,0xba,0xff,0xbf,0x52,0x7b,
 0x6f,0xa0,0x0e,0x56,0x68,0x80,0x01,0x80,0xc3,0x0b,0x70,0x61,0xc1,0x6f,0xef,
 0x22,0x0a,0x22,0x25,0x4a,0x24,0x25,0xca,0x49,0x6c,0xc9,0xfe,0xff,0xa5,0xbc,
 0xff,0x80,0x1e,0xbd,0x40,0x80,0x03,0xc0,0xf4,0x02,0xc0,0x86,0xbf,0xba,0xfd,
 0x08,0xa1,0x88,0x48,0xa5,0xaa,0x50,0xd1,0xa2,0xd4,0xac,0xff,0xe3,0x8b,0x7a,
 0xef,0x47,0x3b,0xb4,0x44,0x80,0x03,0xe0,0x7a,0x00,0x80,0x07,0xbe,0x5e,0xf7,
 0xa2,0x14,0x25,0x95,0x28,0x91,0x8a,0xe4,0x1d,0x6e,0x54,0xff,0x49,0x77,0xbd,
 0xd7,0x05,0x7d,0xb8,0x80,0x00,0x03,0x38,0x0f,0x00,0x00,0x2f,0xdb,0xf7,0xe3,
 0x08,0x48,0x52,0x42,0x92,0x4a,0x2a,0xd5,0x4f,0x6a,0xc5,0xff,0x03,0xfd,0xfa,
 0x53,0x4b,0x6b,0x60,0x92,0x80,0x03,0xd8,0x03,0x00,0x80,0x9b,0xf4,0x7d,0xe0,
 0xa2,0x52,0x09,0xa9,0x4a,0x24,0x51,0xe2,0x5b,0xea,0x94,0xfe,0x07,0xfc,0xff,
 0x2b,0x1e,0xec,0x61,0x09,0x81,0x03,0xee,0x00,0x00,0xc0,0x7e,0xea,0x0f,0xe0,
 0x10,0x89,0x64,0x4a,0xa4,0xaa,0x24,0xd5,0xad,0x66,0x42,0xff,0x05,0xdc,0xfd,
 0xeb,0x17,0xad,0x41,0x29,0x02,0x17,0x3f,0x00,0x00,0x60,0xed,0xa0,0x01,0xf8,
 0x4a,0x52,0x12,0x91,0x52,0x22,0x95,0xd0,0x5f,0xea,0x04,0xff,0x03,0x9c,0xfe,
 0x7f,0x30,0xb0,0xc6,0x11,0x84,0xff,0x0f,0x00,0x00,0x90,0xff,0x43,0xf0,0xff,
 0x81,0x88,0xaa,0x4a,0x29,0x95,0xa2,0xea,0x3b,0x6b,0x02,0xf6,0x03,0xf8,0x7b,
 0xff,0x60,0x88,0x86,0x46,0x08,0xd7,0x01,0x00,0x00,0x8c,0xfa,0x0b,0xec,0xfe,
 0x54,0x52,0x44,0x24,0x8a,0x48,0x28,0xe5,0x5e,0x74,0x8a,0xfc,0x07,0xf0,0xff,
 0x7e,0x80,0x40,0x0a,0xa3,0x98,0xe7,0x01,0x00,0x00,0xc4,0x2e,0x80,0x82,0xf7,
 0x09,0x89,0xaa,0x92,0xa4,0x52,0x95,0xd2,0x2f,0x6a,0x01,0xeb,0x0f,0xe0,0xff,
 0xbb,0x85,0x01,0x1a,0x0c,0xb1,0x76,0x01,0x00,0x00,0x62,0x0f,0x20,0x00,0xf6,
 0xa2,0x54,0x11,0xa9,0x52,0x8a,0x4a,0x68,0x1f,0x76,0x85,0xb6,0x1f,0x50,0xad,
 0xc2,0x12,0x93,0x18,0x0a,0xa3,0xb7,0x1f,0x00,0x00,0xa3,0x03,0x00,0x00,0xe8,
 0x14,0x22,0xaa,0x14,0x29,0x51,0xa4,0xf6,0x0e,0x74,0x04,0x6e,0x6b,0xd2,0x00,
 0xe8,0x4a,0x07,0x30,0x88,0xc6,0xde,0x7f,0x01,0x80,0xe9,0x00,0x00,0x00,0xf8,
 0xa1,0x54,0x49,0xa2,0x84,0x4a,0x29,0xe9,0x1f,0x6b,0x83,0xfe,0xfe,0x3b,0x00,
 0xc0,0xa7,0x07,0x70,0x00,0xce,0xff,0xef,0xff,0x2b,0x38,0x00,0x00,0x00,0xe0,
 0x14,0x49,0x25,0x15,0x55,0x29,0xa5,0xe4,0x2b,0x36,0x0a,0xfe,0xdf,0x3f,0x00,
 0x00,0xaf,0x1e,0xe0,0x28,0x1c,0xfe,0xfd,0x0a,0x00,0x1c,0x00,0x00,0x00,0xe0,
 0xc9,0xa4,0xaa,0xa2,0x52,0x94,0x52,0xf5,0x1f,0x76,0x85,0xfa,0xff,0x17,0x00,
 0x00,0xbe,0x1a,0xe0,0x01,0x38,0xbc,0xfa,0xaf,0x26,0x07,0x00,0x00,0x00,0xe0,
 0x24,0x52,0x94,0x54,0x24,0x65,0x49,0x6a,0x37,0x36,0x06,0xfa,0xff,0x2a,0x10,
 0x80,0xfc,0x3a,0xc0,0x03,0x60,0x3c,0x5c,0xff,0x15,0x03,0x00,0x00,0x00,0xe0,
 0x92,0x8a,0x52,0x8a,0x92,0xf2,0xaa,0xf2,0x1f,0x76,0xab,0xd5,0xff,0x16,0x44,
 0x00,0xe8,0x7d,0xa0,0x87,0xe0,0x1a,0xa0,0x08,0xe0,0x00,0x00,0x00,0x00,0xe0,
 0x49,0xa9,0x4a,0x51,0xa9,0xbc,0x49,0x6a,0x0f,0x37,0x07,0xed,0x7f,0x2b,0x21,
 0x00,0xd1,0xff,0x80,0x07,0xc0,0x3d,0x00,0x15,0x30,0x00,0x00,0x00,0x00,0xe0,
 0x24,0x54,0x29,0x4d,0x4a,0x3d,0x2b,0x75,0x37,0x76,0xab,0x54,0xad,0x54,0xfc,
 0x02,0x64,0xed,0x01,0x0f,0xa0,0x2b,0x00,0x60,0x19,0x00,0x00,0x00,0x00,0xe0,
 0x80,0x22,0xa5,0x24,0xa5,0x66,0xa5,0xf2,0x2f,0x76,0x4b,0xd5,0xb7,0xaa,0xff,
 0x07,0xa0,0xeb,0x83,0x1e,0x60,0x3f,0x00,0x00,0x00,0x00,0x00,0x00,0x00,0xe0,
 0x00,0xaa,0xaa,0x52,0x29,0xe7,0x56,0xf5,0x5e,0x37,0x2f,0xb5,0x94,0xda,0xc1,
 0x1f,0x48,0x95,0x07,0x3c,0x00,0x7f,0x00,0x00,0x00,0x00,0x00,0x00,0x00,0xe0,
 0x40,0x58,0x95,0xaa,0xd4,0xd3,0x2b,0xf5,0x5b,0x72,0x4f,0x55,0xab,0xfe,0x00,
 0x1c,0x20,0x55,0x0f,0x6c,0x80,0x1b,0x00,0x00,0x00,0x00,0x00,0x00,0x00,0xe0,
 0xb5,0xa7,0x54,0x55,0xa5,0x8b,0xa7,0xf4,0x29,0x3f,0x2f,0xb5,0x54,0xff,0x40,
 0x70,0xa0,0xaa,0x0e,0xdc,0x00,0x1e,0x00,0x00,0x00,0x00,0x00,0x00,0x00,0xe0,
 0x96,0x58,0xa5,0x2a,0xd5,0x8f,0x5f,0x75,0x34,0x73,0xbd,0xaa,0xd2,0xff,0x41,
 0xa0,0xa8,0x56,0x3d,0xb8,0x40,0x1e,0x00,0x00,0x00,0x00,0x00,0x00,0x00,0xe0,
 0xa9,0x4a,0x95,0xa4,0xea,0xf7,0x4a,0xf5,0xaa,0x76,0x57,0xab,0xfa,0xbf,0x7f,
 0xc1,0x51,0x55,0x3b,0x98,0xa1,0x1c,0x00,0x00,0x00,0x00,0x00,0x00,0x00,0xe0,
 0xa4,0xaa,0x6a,0x95,0xd2,0x7b,0x5e,0x75,0x24,0x33,0xbf,0xa9,0xfe,0x45,0x04,
 0xc6,0x53,0x55,0x7b,0x31,0x83,0x1e,0x00,0x00,0x00,0x00,0x00,0x00,0x00,0xe0,
 0x55,0x55,0x55,0x55,0xea,0x7e,0x5d,0xf5,0x12,0x77,0x5f,0x55,0xfd,0x7a,0x29,
 0x3c,0xaa,0xaa,0x74,0x32,0x86,0x17,0x00,0x00,0x00,0x00,0x00,0x00,0x00,0xe0,
 0x92,0xaa,0xaa,0x55,0xe9,0xff,0x79,0xf5,0x54,0x73,0xbd,0x4a,0x75,0x95,0xaa,
 0x1a,0x56,0x49,0xf1,0x64,0x8c,0x0f,0x00,0x00,0x00,0x00,0x00,0x00,0x00,0xe0,
 0x55,0x4a,0x55,0x55,0xd5,0x7f,0xfe,0xda,0x92,0x77,0x6e,0xaa,0x9a,0xaa,0xaa,
 0xaa,0x3c,0x2d,0xe8,0xe3,0xc8,0x1e,0x00,0x00,0x00,0x00,0x00,0x00,0x00,0xe0,
 0x56,0x55,0x95,0xaa,0xea,0xff,0xfd,0x7a,0x48,0x6b,0xfb,0xaa,0x6a,0x55,0x55,
 0x55,0xda,0x5a,0xd2,0xc7,0x18,0x17,0x00,0x00,0x00,0x00,0x00,0x00,0x00,0xe0,
 0xf0,0xae,0x0a,0x55,0xb5,0x7f,0xf3,0xfd,0x2a,0x6f,0xfe,0x55,0x95,0xaa,0x4a,
 0xaa,0x7a,0xaa,0xd6,0xa7,0x31,0x3a,0x00,0x00,0x00,0x00,0x00,0x00,0x00,0xe0,
 0x40,0xa1,0x0a,0x2a,0xa9,0xfd,0xef,0x6f,0x48,0xa7,0xea,0xab,0x54,0xa5,0xf4,
 0x4b,0xd5,0x4a,0xa2,0x9f,0x61,0x15,0x00,0x00,0x00,0x00,0x00,0x00,0x00,0xe0,
 0x80,0x82,0x0a,0xb5,0xaa,0xfe,0xca,0xff,0x25,0xbf,0xf6,0x97,0xaa,0x54,0xff,
 0x5f,0x55,0x25,0xd0,0x5f,0x83,0x1d,0x00,0x00,0x00,0x00,0x00,0x00,0x00,0xe0,
 0x80,0x42,0x15,0x4a,0x55,0xff,0x9f,0x7f,0x4a,0xef,0xd4,0x7d,0xa5,0xca,0xff,
 0x55,0xa9,0x12,0x50,0x3f,0xc7,0x3f,0x00,0x00,0x00,0x00,0x00,0x00,0x00,0xe0,
 0x40,0x45,0x15,0xaa,0xaa,0xfe,0x57,0xff,0x24,0xb7,0xde,0xff,0x5b,0xf5,0x7e,
 0xab,0xaa,0x0a,0xa8,0xff,0x86,0x7e,0x00,0x00,0x00,0x00,0x00,0x00,0x00,0xe0,
 0x80,0x82,0x2a,0x55,0x49,0xfd,0x7f,0xfe,0x89,0xee,0xa9,0xf7,0x7f,0x55,0xeb,
 0x57,0x92,0x40,0xd2,0x6e,0x0d,0x7f,0x00,0x00,0x00,0x00,0x00,0x00,0x00,0xe0,
 0x00,0x85,0x2a,0x56,0x55,0xfd,0xff,0x7d,0x52,0xaf,0xd9,0xda,0xb6,0xab,0xd5,
 0x5a,0x49,0x62,0x48,0xff,0x1a,0x7d,0x00,0x00,0x00,0x00,0x00,0x00,0x00,0xe0,
 0x00,0x8a,0x2a,0xaa,0xaa,0xee,0xbf,0xf2,0xa1,0xee,0x55,0xb7,0x6a,0x75,0x6d,
 0xad,0xa8,0x86,0xd6,0xef,0x1b,0xfe,0x00,0x00,0x00,0x00,0x00,0x00,0x00,0xe0,
 0x00,0x8a,0x2a,0xab,0xaa,0xfe,0xfd,0xef,0x88,0xee,0xa9,0x5a,0x95,0x96,0xb5,
 0x55,0xab,0x2a,0x55,0xef,0x37,0xbd,0x01,0x00,0x00,0x00,0x00,0x00,0x00,0xe0,
 0x00,0x16,0xd5,0xaa,0xaa,0xe6,0xfb,0xf5,0x52,0xee,0x43,0xa9,0x54,0x54,0x4a,
 0xb6,0xed,0xaa,0xa8,0xef,0x3e,0xfd,0x01,0x00,0x00,0x00,0x00,0x00,0x00,0xe0,
 0x00,0x14,0x55,0xad,0xaa,0xe6,0xf6,0xdf,0xa8,0xce,0x1f,0x50,0x52,0xab,0xaa,
 0xaa,0x2a,0x55,0x85,0xaf,0xec,0xfe,0x03,0x00,0x00,0x00,0x00,0x00,0x00,0xe0,
 0x00,0x28,0xaa,0x55,0x55,0xe7,0xde,0xff,0x45,0xfe,0x3d,0x00,0x88,0x54,0x55,
 0x95,0xa4,0x55,0xf8,0xc5,0x78,0xbe,0x03,0x00,0x00,0x00,0x00,0x00,0x00,0xe0,
 0x00,0x28,0xd5,0xb6,0xaa,0x73,0x7f,0xff,0x29,0xdd,0xe7,0x15,0x00,0xaa,0x92,
 0x44,0x90,0xa4,0xff,0x6e,0xe8,0xfe,0x07,0x00,0x00,0x00,0x00,0x00,0x00,0xe0,
 0x00,0x58,0x6d,0xd5,0x56,0xa3,0xfd,0xfd,0x95,0x9c,0x1e,0xbf,0xab,0x40,0x20,
 0x91,0x4a,0xfd,0xef,0x87,0xe0,0xff,0x07,0x00,0x00,0x00,0x00,0x00,0x00,0xe0,
 0x00,0xa0,0xaa,0xab,0x6a,0xf3,0xfe,0xff,0x49,0x7e,0xf2,0xff,0x5f,0x5f,0xaf,
 0xfe,0xff,0x17,0xf8,0x57,0x32,0x77,0x0f,0x00,0x00,0x00,0x00,0x00,0x00,0xe0,
 0x00,0xd0,0x56,0xad,0xaa,0xb3,0xbf,0xff,0xa5,0x7a,0x14,0xed,0xfd,0xeb,0xf7,
 0x95,0x68,0xe9,0xff,0xc7,0x64,0xb7,0x0f,0x00,0x00,0x00,0x00,0x00,0x00,0xe0,
 0x00,0x60,0xdb,0x55,0x5f,0xf3,0x1f,0xff,0x2b,0xfd,0xbb,0xa2,0xee,0xfe,0xd5,
 0x43,0xf6,0xaf,0x92,0x6a,0x80,0xf6,0x1b,0x00,0x00,0x00,0x00,0x00,0x00,0xe0,
 0x00,0x80,0x6a,0xb5,0xf7,0xb9,0x0f,0xbe,0x93,0xf4,0x7f,0x2d,0x20,0x83,0xee,
 0xfe,0x15,0x00,0x48,0x6a,0x00,0xe7,0x1e,0x00,0x00,0x00,0x00,0x00,0x00,0xe0,
 0x00,0x60,0xab,0xd6,0xd0,0xf3,0x07,0xfe,0x49,0x65,0xff,0x5f,0xbd,0x10,0x00,
 0x00,0x48,0xa2,0x92,0x32,0x00,0xc6,0x37,0x00,0x00,0x00,0x00,0x00,0x00,0xe0,
 0x00,0x80,0xb6,0xea,0x00,0xf9,0x0b,0xfe,0x25,0xb1,0xe0,0xff,0xff,0xff,0x07,
 0x92,0x02,0x08,0x24,0x3d,0x00,0x42,0x3f,0x00,0x00,0x00,0x00,0x00,0x00,0xe0,
 0x00,0x80,0xae,0x35,0x80,0xf8,0x0b,0xb7,0x91,0x72,0x05,0x40,0xff,0xff,0xff,
 0xff,0xff,0xaa,0xdb,0x1f,0x30,0x02,0x7f,0x00,0x00,0x00,0x00,0x00,0x00,0xe0,
 0x00,0x00,0xab,0xb6,0x80,0xe8,0x07,0xde,0xab,0xa8,0x94,0x02,0x00,0xea,0xd4,
 0xde,0xff,0xff,0xff,0x12,0x00,0x02,0x7d,0x00,0x00,0x00,0x00,0x00,0x00,0xe0,
 0x00,0x00,0xbd,0xba,0x80,0xbc,0x4b,0xb5,0x0e,0x72,0x6e,0x12,0x00,0x00,0xf5,
 0xb7,0x6f,0x00,0x00,0x00,0x00,0x03,0x5c,0x00,0x00,0x00,0x00,0x00,0x00,0xe0,
 0x00,0x00,0xcb,0x2a,0x81,0xec,0x07,0x7b,0x7f,0x61,0xef,0x4b,0x1c,0x00,0x00,
 0xfd,0x5f,0x00,0x00,0x12,0x00,0x01,0xf9,0x00,0x00,0x00,0x00,0x00,0x00,0xe0,
 0x00,0x00,0x7d,0x75,0x40,0xb4,0x82,0xad,0xfd,0xb0,0xef,0x77,0x0c,0x00,0x00,
 0x78,0x2b,0x40,0x00,0x10,0x00,0x03,0xf8,0x00,0x00,0x00,0x00,0x00,0x00,0xe0,
 0x00,0x00,0x95,0x6d,0x43,0xec,0x85,0xd9,0xf6,0xff,0xbf,0xbf,0x2f,0x00,0x00,
 0xed,0x76,0x10,0x05,0x14,0x00,0x03,0xf0,0x00,0x00,0x00,0x00,0x00,0x00,0xe0,
 0x00,0xc0,0x76,0xf5,0x4a,0xd4,0xd3,0x7d,0xdb,0xff,0x68,0xdf,0x1f,0x00,0x00,
 0xc0,0x25,0x00,0x00,0x0a,0x80,0x03,0xf0,0x01,0x00,0x00,0x00,0x00,0x00,0xe0,
 0x00,0x40,0xab,0xfd,0x65,0xe6,0xc1,0xac,0xf6,0xff,0x23,0x75,0xaf,0x00,0x00,
 0xd0,0x1a,0x00,0x00,0x14,0xa0,0x03,0xe0,0x00,0x00,0x00,0x00,0x00,0x00,0xe0,
 0x00,0xc0,0x7a,0xaf,0x25,0xd5,0xc2,0xde,0xfb,0xfb,0x7f,0x08,0x18,0x00,0x00,
 0x08,0x01,0x00,0x00,0x0c,0xdd,0x03,0xc0,0x01,0x00,0x00,0x00,0x00,0x00,0xe0,
 0x00,0x00,0xed,0xa3,0x6b,0x72,0x69,0x6d,0xfd,0xaf,0xff,0x17,0x42,0x02,0x00,
 0x00,0x11,0x00,0x00,0x8e,0xff,0x07,0xc0,0x01,0x00,0x00,0x00,0x00,0x00,0xe0,
 0x00,0x80,0x7b,0xdd,0x36,0xeb,0x61,0xb7,0xfe,0xaf,0xfe,0xff,0x2d,0x09,0x00,
 0x00,0x44,0x00,0xd0,0xff,0xbf,0x03,0x40,0x01,0x00,0x00,0x00,0x00,0x00,0xe0,
 0x00,0x00,0x3e,0x4f,0x2b,0x77,0xf1,0xde,0xdf,0x7d,0xff,0xfa,0xff,0xff,0x7f,
 0x05,0x30,0xa5,0x6b,0xfb,0xff,0x03,0x80,0x01,0x00,0x00,0x00,0x00,0x00,0xe0,
 0x00,0x00,0x1d,0x23,0x3c,0xff,0x30,0xb7,0xa6,0xf7,0xf5,0xdf,0xde,0x4a,0x80,
 0x50,0xd2,0xba,0xbc,0xff,0x4b,0x03,0xc0,0x01,0x00,0x00,0x00,0x00,0x00,0xe0,
 0x00,0x00,0xce,0x05,0x38,0xb7,0xf0,0xdb,0x47,0x5e,0x6f,0xff,0x7f,0x92,0x2a,
 0x0a,0x49,0xd5,0xd6,0xfd,0xa6,0x03,0x80,0x03,0x00,0x00,0x00,0x00,0x00,0xe0,
 0x00,0x00,0xae,0x01,0xb0,0xff,0x98,0xb7,0x23,0xf0,0xbd,0xd4,0xff,0xff,0xff,
 0xfb,0xb5,0xb7,0x7f,0x3c,0x52,0x03,0x80,0x01,0x00,0x00,0x00,0x00,0x00,0xe0,
 0x00,0x00,0xd6,0x01,0x10,0x5f,0xf8,0xfa,0x07,0x80,0x6b,0x42,0xfe,0xff,0xff,
 0xaf,0xfe,0xff,0x0b,0x5c,0xa3,0x03,0x80,0x03,0x00,0x00,0x00,0x00,0x00,0xe0,
 0x00,0x00,0x6c,0x00,0x30,0xbf,0xd8,0xef,0x09,0x00,0xfe,0x09,0xff,0xff,0xff,
 0xff,0xff,0xff,0x02,0x86,0x12,0x03,0x80,0x03,0x00,0x00,0x00,0x00,0x00,0xe0,
 0x00,0x00,0x64,0x00,0xb0,0x6f,0xec,0xfa,0x34,0x00,0xe8,0x07,0xe0,0xff,0xae,
 0xfa,0xff,0x2e,0x01,0x17,0xc9,0x03,0x00,0x03,0x20,0x00,0x00,0x00,0x00,0xe0,
 0x00,0x00,0x64,0x00,0x10,0x7f,0x7c,0xef,0xd0,0x01,0x80,0x0e,0x00,0xff,0xff,
 0x00,0x0e,0xbf,0x80,0x83,0x92,0x01,0x00,0x03,0xc0,0x01,0x00,0x00,0x00,0xe0,
 0x00,0x00,0x34,0x00,0xb0,0x2f,0xf6,0x7a,0x2e,0x07,0x00,0x3d,0x00,0x7c,0xb5,
 0x07,0x17,0x05,0xe0,0x81,0xc2,0x01,0x00,0x1f,0x00,0x07,0x00,0x00,0x00,0xe0,
 0x00,0x00,0x98,0x00,0x38,0x3f,0xbe,0x6f,0x5f,0x1d,0x00,0xf0,0x00,0xf0,0xcb,
 0xbd,0xc1,0x02,0xe0,0x90,0x52,0x01,0x80,0x7f,0x00,0x38,0x00,0x00,0x00,0xe0,
 0x00,0x00,0x14,0x00,0x34,0x2f,0xfe,0x7a,0xbe,0xf4,0x00,0xc0,0x07,0x80,0x5f,
 0xd6,0x43,0x00,0x38,0x00,0xc1,0x01,0xf4,0xef,0x00,0xe0,0x01,0x00,0x00,0xe0,
 0x00,0x00,0x5a,0x00,0x9b,0x27,0x5f,0x7f,0xf7,0x8a,0x02,0x00,0x1e,0x00,0xfa,
 0xa9,0x23,0x00,0x34,0x48,0xb1,0x00,0xff,0x0f,0x03,0x20,0x0e,0x00,0x00,0xe0,
 0x00,0x00,0x08,0x48,0xbe,0x9a,0xee,0xf5,0xce,0xa9,0x0e,0x00,0x78,0x00,0x70,
 0x2f,0x1b,0x00,0x1a,0x40,0xa9,0x02,0xbd,0x0f,0x04,0x20,0x70,0x00,0x00,0xe0,
 0x00,0x00,0x2a,0xfa,0xbf,0x0f,0x73,0xfb,0xd6,0x4c,0x32,0x00,0xe0,0x01,0x80,
 0x55,0x0b,0x00,0x0c,0x88,0x60,0x80,0x8f,0x6f,0x08,0x20,0x80,0x03,0x00,0xe0,
 0x00,0x00,0x14,0x20,0xbf,0x2b,0xbb,0xef,0xde,0x77,0xd9,0x01,0x00,0x07,0x00,
 0x5a,0x07,0x80,0x06,0xa0,0xb4,0x80,0x03,0x1e,0x10,0x20,0x80,0x1f,0x00,0xe0,
 0x00,0x00,0x52,0x00,0xd8,0xaf,0xe1,0xfa,0x70,0xbf,0xaa,0x07,0x00,0x7c,0x00,
 0x00,0x01,0x20,0x03,0x80,0x90,0x80,0x09,0x00,0x60,0x20,0xf0,0x7f,0x00,0xe0,
 0x00,0x00,0x4a,0x00,0xf0,0xd7,0xa1,0xef,0xd4,0xf7,0xa5,0x1e,0x00,0xe0,0x05,
 0x00,0x00,0x80,0x02,0xc0,0x34,0x81,0x05,0x00,0x60,0x20,0xfe,0x7f,0x00,0xe0,
 0x00,0x00,0xaa,0x00,0xe0,0xcb,0x40,0xfb,0x93,0xff,0x17,0xf1,0x00,0x80,0x3f,
 0x00,0x00,0x80,0x01,0x50,0x4a,0x00,0x57,0x00,0x30,0xe0,0xff,0x1f,0x00,0xe0,
 0x00,0x00,0xd8,0x02,0xe0,0xc7,0x80,0xfe,0xcb,0xec,0xbb,0xc4,0x03,0x00,0x14,
 0x00,0x00,0xc8,0x00,0x40,0x5a,0x01,0xfd,0x01,0x1e,0xf8,0xff,0x03,0x00,0xe0,
 0x00,0x00,0x3a,0x03,0xe0,0x4b,0x00,0xec,0x5f,0xdc,0xce,0xc1,0x1f,0x00,0xd0,
 0x00,0x00,0x20,0x00,0x20,0x6a,0x00,0xfe,0x04,0x3d,0xff,0x7f,0x00,0x00,0xe0,
 0x00,0x00,0xf2,0x15,0xf0,0xa3,0x00,0xfc,0x3f,0xa5,0xff,0x84,0x77,0x00,0x00,
 0x0d,0x00,0x00,0x00,0x40,0x24,0x80,0xff,0x92,0xee,0xff,0x0f,0x00,0x00,0xe0,
 0x00,0x00,0xd4,0x57,0xf4,0x47,0x00,0xfc,0xfd,0xca,0xfb,0xde,0xdd,0x03,0x00,
 0x60,0x00,0x0c,0x00,0x10,0x35,0xc0,0xd7,0xff,0xef,0xff,0x01,0x00,0x00,0xe0,
 0x00,0x00,0x94,0x5f,0xba,0x51,0x00,0xec,0xff,0xaf,0xfe,0xce,0x61,0x3d,0x00,
 0x00,0x03,0x0e,0x00,0x20,0x15,0xe0,0x00,0xff,0xe9,0x3f,0x00,0x00,0x00,0xe0,
 0x00,0x00,0xb0,0x5e,0xfd,0x43,0x00,0xff,0xfb,0xbf,0xde,0xfa,0xc0,0xc3,0x00,
 0x00,0x28,0x06,0x00,0xa0,0x1a,0x30,0x02,0xf0,0xea,0x07,0x00,0x00,0x00,0xe0,
 0x00,0x00,0x24,0x7d,0xfb,0x2b,0xe0,0xef,0xe9,0xfb,0xf2,0xd6,0x03,0x0a,0x06,
 0x00,0x80,0x03,0x00,0x90,0x0c,0x8c,0x01,0x00,0xe4,0x00,0x00,0x00,0x00,0xe0,
 0x00,0x00,0x94,0x72,0xbc,0x31,0xf8,0xfd,0xe3,0x7f,0x95,0xfe,0x8f,0x40,0x38,
 0x00,0x00,0x03,0x00,0x90,0x0c,0x26,0x00,0x00,0x20,0x00,0x00,0x00,0x00,0xe0,
 0x00,0x00,0xbc,0xea,0xfe,0x12,0xfc,0xdb,0x13,0xdf,0xdf,0xb6,0x7f,0x00,0xc7,
 0x01,0x80,0x03,0x00,0x50,0x05,0x07,0x40,0x00,0x28,0x01,0x00,0x40,0x00,0xe0,
 0x00,0x00,0xe0,0x81,0xff,0x09,0x6f,0xff,0xcb,0x7a,0x37,0xbd,0xeb,0x05,0x14,
 0x0e,0xc0,0x06,0x00,0x48,0x06,0x16,0x48,0x00,0x20,0x01,0x00,0x40,0x00,0xe0,
 0x00,0x00,0x00,0x17,0xff,0x89,0xff,0xed,0x25,0xf5,0xfb,0xca,0x4e,0x87,0x42,
 0x74,0x40,0x02,0x00,0x08,0x03,0x0e,0x64,0x00,0x00,0x00,0x00,0x40,0x00,0xe0,
 0x00,0x00,0x00,0xfc,0xf7,0xc4,0xaf,0xff,0x57,0xaa,0x77,0x57,0x3f,0x5d,0x08,
 0x04,0x20,0x06,0x00,0xa4,0x01,0x26,0x28,0x00,0xe8,0xff,0xff,0x7f,0x00,0xe0,
 0x00,0x00,0x00,0xc0,0xfd,0xe4,0xfb,0xd6,0x27,0x51,0xfe,0xab,0xf9,0xe1,0xa5,
 0x04,0x02,0x04,0x00,0x40,0x03,0x16,0xb8,0x06,0xc0,0xaa,0xaa,0x7a,0x00,0xe0,
 0x00,0x00,0x00,0xc0,0xbf,0xe0,0xde,0xff,0x4f,0x95,0xfa,0xdf,0xfc,0x87,0x17,
 0x36,0x10,0x92,0x01,0xc2,0x01,0x5e,0xb8,0x01,0x00,0x00,0x00,0x7c,0x00,0xe0,
 0x00,0x00,0x00,0x80,0x1e,0xe0,0xf7,0xf6,0x3f,0x4a,0xed,0x7b,0xf9,0x7f,0xfc,
 0xf6,0x18,0x12,0x01,0x62,0x04,0x0d,0xf8,0x0e,0x00,0x04,0xc0,0x7f,0x00,0xe0,
 0x00,0x00,0x00,0x80,0x3f,0xb1,0xbd,0xdf,0xff,0x29,0xda,0xef,0x62,0xfd,0x43,
 0x27,0x0b,0xc6,0x00,0x70,0x02,0x57,0x78,0x03,0x00,0x00,0xf8,0x7f,0x00,0xe0,
 0x00,0x00,0x00,0x80,0xbe,0xea,0xef,0xfb,0xff,0xa3,0xaa,0xbf,0x9f,0xe8,0x9f,
 0x37,0x1a,0xc6,0x00,0x39,0x06,0x17,0xf8,0x01,0x00,0x84,0xff,0x7f,0x00,0xe0,
 0x00,0x00,0x00,0x80,0x6f,0x79,0xfb,0x6e,0xff,0x0f,0xf5,0xfe,0x5d,0x91,0xfe,
 0x72,0x0b,0x4e,0x00,0x30,0x8c,0x0d,0xbc,0x00,0x00,0xf0,0xff,0x1f,0x00,0xe0,
 0x00,0x00,0x00,0x00,0x57,0xf0,0xbf,0xff,0xff,0x2f,0xfc,0xff,0xf7,0x48,0xfd,
 0xef,0x0e,0x22,0x00,0x1c,0xcc,0x06,0xdc,0x01,0x00,0xfe,0xff,0x03,0x00,0xe0,
 0x00,0x00,0x00,0x00,0x37,0xb8,0xed,0x76,0xff,0xff,0xd4,0xfb,0xbf,0x25,0xfa,
 0x67,0x0a,0x6e,0x00,0x1c,0x5a,0x82,0xfe,0x01,0xe0,0xff,0x7f,0x00,0x00,0xe0,
 0x00,0x00,0x00,0x80,0x13,0xf8,0xff,0xff,0xff,0x7f,0xf9,0xbe,0xfd,0x57,0xdd,
 0x50,0x0d,0x34,0x00,0x0e,0x7c,0x08,0x7f,0x00,0xe0,0xff,0x07,0x00,0x00,0xe0,
 0x00,0x00,0x00,0x00,0x33,0xb8,0x6d,0xff,0x51,0xff,0x47,0x6f,0xf4,0xaf,0xf8,
 0x8f,0x08,0x5a,0x00,0x2f,0x30,0x82,0xef,0x00,0xc0,0x7f,0x00,0x00,0x00,0xe0,
 0x00,0x00,0x00,0x00,0x19,0xf0,0xff,0x7f,0x44,0xfd,0xaf,0xfd,0xeb,0x7e,0xa7,
 0x21,0x0d,0x6a,0x80,0x1b,0x70,0x48,0x97,0x01,0x00,0x7c,0x00,0x00,0x00,0xe0,
 0x00,0x00,0x00,0x80,0x09,0x78,0xfb,0x1f,0x55,0xee,0xff,0xf6,0x50,0xf8,0x5b,
 0xac,0x08,0x06,0x80,0x39,0xe8,0xa4,0x1f,0x01,0x00,0xe3,0x03,0x00,0x00,0xe0,
 0x00,0x00,0x00,0x00,0x0d,0xf8,0xff,0x43,0x29,0xf1,0xff,0xa3,0xd6,0xd3,0x5f,
 0x93,0x0c,0x12,0xc0,0x5a,0xe0,0xd4,0x03,0x02,0x00,0x07,0x1e,0x00,0x00,0xe0,
 0x00,0x00,0x00,0x00,0x05,0xb8,0x7f,0x90,0x94,0xca,0xbf,0xdf,0x51,0xbf,0xfe,
 0x4d,0x08,0x0c,0xe0,0x34,0xc0,0xaa,0x01,0x00,0x00,0x03,0xf0,0x00,0x00,0xe0,
 0x00,0x00,0x00,0x00,0x0f,0xf8,0x0f,0x00,0x42,0xa4,0xfb,0xba,0xaa,0x3f,0xfa,
 0x3f,0x0d,0x02,0x30,0x52,0x80,0xd3,0x09,0x00,0x80,0x02,0x80,0x0f,0x00,0xe0,
 0x00,0x00,0x00,0x00,0x2e,0xf2,0x1f,0x40,0x00,0x20,0xff,0xff,0xc5,0xfe,0xc4,
 0xff,0x09,0x24,0x50,0x75,0x80,0xff,0x02,0x00,0x08,0x01,0x00,0x78,0x00,0xe0,
 0x00,0x00,0x00,0x00,0xb8,0xd0,0x3b,0x00,0x09,0x49,0xbc,0xf7,0x97,0xfa,0x23,
 0xfe,0x0f,0x02,0xb8,0x50,0x80,0xfe,0x04,0x00,0xe8,0xfe,0xff,0x7f,0x00,0xe0,
 0x00,0x00,0x00,0x00,0x00,0xf8,0x3f,0x00,0x40,0x80,0xf2,0xff,0x9f,0xea,0x17,
 0xed,0x1e,0x00,0x0c,0x71,0x00,0xfe,0x00,0x00,0xed,0xff,0xff,0x7f,0x00,0xe0,
 0x00,0x00,0x00,0x00,0x00,0xf0,0x75,0x00,0x00,0x29,0xc9,0xff,0xfb,0xe4,0x5f,
 0xa9,0x1f,0x02,0xec,0x54,0x00,0xe5,0x0b,0x00,0xec,0xff,0xff,0x7f,0x00,0xe0,
 0x00,0x00,0x00,0x00,0x00,0xf0,0x7b,0x80,0x24,0xf4,0x24,0xc1,0xef,0xd3,0xff,
 0x2c,0x08,0x00,0x37,0x60,0x00,0xcc,0x45,0x80,0xef,0xff,0xff,0x7f,0x00,0xe0,
 0x00,0x00,0x00,0x00,0x00,0xf8,0xe8,0x00,0x00,0x01,0x93,0x54,0xbf,0x5f,0xed,
 0x5b,0x01,0x02,0x2f,0x74,0x00,0x98,0x17,0x54,0xe7,0xff,0xff,0x7f,0x00,0xe0,
 0x00,0x00,0x00,0x00,0x00,0xb0,0xe6,0x01,0x00,0x80,0x4c,0xaa,0xfa,0xbe,0xfa,
 0x49,0x08,0x80,0x1f,0x41,0x00,0x90,0x8b,0x52,0x23,0x00,0x00,0x00,0x00,0xe0,
 0x00,0x00,0x00,0x00,0x00,0x78,0xda,0x01,0x40,0x00,0x22,0x55,0xff,0xef,0xe4,
 0x9b,0x08,0xc2,0x9f,0x28,0x00,0x20,0x23,0xad,0x21,0x00,0x00,0x00,0x00,0xe0,
 0x00,0x00,0x00,0x00,0x00,0x98,0xaa,0x03,0x04,0x09,0x90,0xe9,0xff,0xbf,0xeb,
 0x57,0x00,0xe0,0x5e,0x64,0x00,0x24,0x4e,0xf5,0x21,0x00,0x00,0x00,0x00,0xe0,
 0x00,0x00,0x00,0x00,0x00,0x5c,0xed,0x05,0x00,0x40,0x64,0x74,0xfb,0xff,0xef,
 0x1f,0x08,0xf2,0x2f,0x29,0x00,0x20,0xa8,0xfd,0x00,0x00,0x00,0x00,0x00,0xe0,
 0x00,0x00,0x00,0x00,0x00,0x84,0xde,0x07,0x08,0x02,0xb5,0x07,0xff,0x5f,0xbd,
 0x56,0x08,0xf3,0x5f,0x44,0x00,0x40,0xf8,0x1f,0x00,0x00,0x00,0x00,0x00,0xe0,
 0x00,0x00,0x00,0x00,0x00,0x56,0xfe,0x0b,0x40,0x48,0xda,0x80,0xff,0xff,0xfa,
 0xb7,0x80,0xfd,0x7d,0x23,0x00,0x40,0x60,0x02,0x20,0x00,0x00,0x00,0x00,0xe0,
 0x00,0x00,0x00,0x00,0x00,0x2c,0xfd,0x35,0x00,0xa0,0x1f,0x00,0xff,0xea,0xd7,
 0x7f,0xc8,0xfd,0xbf,0x3a,0x00,0x90,0x00,0x00,0x20,0x00,0x00,0x00,0x00,0xe0,
 0x00,0x00,0x00,0x00,0x00,0x88,0xee,0x92,0x00,0xd1,0x01,0x80,0x3b,0x5e,0xbf,
 0xfa,0xd1,0xde,0xef,0x0e,0x00,0x80,0x00,0x00,0x20,0x00,0x00,0x00,0x00,0xe0,
 0x00,0x00,0x00,0x00,0x00,0xac,0xf6,0x6d,0x4a,0x7c,0x00,0xd0,0x0e,0xf4,0xfa,
 0x95,0xff,0xf7,0xff,0x07,0x00,0x00,0x01,0x00,0xe0,0xaa,0xaa,0x36,0xc0,0xe1,
 0x00,0x00,0x00,0x00,0x00,0x28,0xdf,0xea,0xa5,0x3f,0x00,0x40,0x07,0xa0,0xd7,
 0x6f,0xfa,0x7f,0xff,0x01,0x00,0x00,0x01,0x00,0xe0,0xff,0xff,0x7f,0x78,0xe1,
 0x00,0x00,0x00,0x00,0x00,0x90,0xfe,0x29,0x9b,0x07,0x00,0x48,0x01,0x80,0x6a,
 0xdd,0xeb,0xab,0x09,0x00,0x00,0x00,0x01,0x00,0xe0,0xff,0xff,0x7f,0xd8,0xe1,
 0x00,0x00,0x00,0x00,0x00,0x58,0xf7,0x42,0xa4,0x12,0x00,0xa2,0x00,0x00,0xbe,
 0xff,0xfd,0x55,0x00,0x00,0x00,0x00,0x02,0x00,0xe0,0xff,0xff,0x7f,0x68,0xe3,
 0x00,0x00,0x00,0x00,0x00,0x90,0xbb,0x00,0x00,0x0b,0x00,0x58,0x00,0x00,0xac,
 0xfa,0x67,0x09,0x00,0x00,0x00,0x00,0x00,0x00,0xe0,0xff,0xff,0x7f,0xf8,0xe2,
 0x00,0x00,0x00,0x00,0x00,0xa0,0x5a,0x00,0x80,0x01,0x80,0x14,0x00,0x00,0x54,
 0xed,0xbf,0x05,0x00,0x00,0x00,0x00,0x04,0x00,0x20,0x00,0x00,0x40,0xa0,0xe3,
 0x00,0x00,0x00,0x00,0x00,0x50,0x56,0x00,0xc0,0x04,0x00,0x07,0x00,0x00,0xe8,
 0xf6,0x67,0x00,0x00,0x00,0x00,0x00,0x00,0x00,0x20,0x00,0x00,0x40,0xf0,0xe0,
 0x00,0x00,0x00,0x00,0x00,0x20,0x0f,0x01,0x60,0x00,0xc0,0x01,0x00,0x00,0x28,
 0xab,0x1f,0x00,0x00,0x00,0x00,0x00,0x00,0x00,0x20,0x00,0x00,0x40,0x00,0xe0,
 0x00,0x00,0x00,0x00,0x00,0xa0,0x8a,0x0d,0xb0,0x00,0xe0,0x00,0x00,0x00,0xd0,
 0xda,0x2f,0x08,0x00,0x00,0x00,0x00,0x08,0x00,0x20,0x00,0x00,0x40,0x00,0xe0,
 0x00,0x00,0x00,0x00,0x00,0x40,0x15,0x00,0x30,0x00,0x38,0x00,0x00,0x00,0xa8,
 0x6a,0x1f,0x00,0x02,0x00,0x00,0x00,0x00,0x00,0x00,0x00,0x00,0x00,0x00,0xe0,
 0x00,0x00,0x00,0x00,0x00,0xc0,0x42,0x00,0x58,0x00,0x0c,0x00,0x00,0x00,0x50,
 0xad,0x4f,0x01,0x00,0x00,0x00,0x00,0x10,0x00,0x00,0x00,0x00,0x00,0x00,0xe0,
 0x00,0x00,0x00,0x00,0x00,0xc0,0x0f,0x00,0x18,0x00,0x07,0x00,0x00,0x00,0x50,
 0x55,0x1f,0x40,0x00,0x00,0x00,0x00,0x00,0x00,0x00,0xf0,0x7f,0x00,0x00,0xe0,
 0x00,0x00,0x00,0x00,0x00,0x80,0x2b,0x00,0x0c,0x80,0x01,0x00,0x00,0x00,0xa0,
 0x6a,0x5f,0x00,0x00,0x00,0x40,0x00,0x30,0x00,0x00,0xfc,0xff,0x01,0x00,0xe0,
 0x00,0x00,0x00,0x00,0x00,0x00,0xbe,0x00,0x24,0x60,0x00,0x00,0x00,0x00,0xa0,
 0xaa,0x3e,0x08,0x10,0x00,0x00,0x00,0x20,0x00,0x00,0xfe,0xff,0x07,0x00,0xe0,
 0x00,0x00,0x00,0x00,0x00,0x00,0xac,0x00,0x0e,0x18,0x00,0x00,0x00,0x00,0x50,
 0x55,0x5f,0x00,0x02,0x80,0x10,0x01,0x68,0x00,0x00,0xff,0xff,0x0f,0x00,0xe0,
 0x00,0x00,0x00,0x00,0x00,0x00,0xb8,0x00,0x02,0x0f,0x00,0x00,0x00,0x00,0x60,
 0x55,0x3d,0x01,0x00,0x00,0x22,0x04,0x45,0x00,0x80,0xff,0xff,0x1f,0x00,0xe0,
 0x00,0x00,0x00,0x00,0x00,0x00,0xe0,0x00,0xeb,0x01,0x00,0x00,0x00,0x00,0x80,
 0xaa,0x36,0x80,0x00,0x00,0x04,0x00,0x41,0x00,0xc0,0x0b,0x00,0x1e,0x00,0xe0,
 0x00,0x00,0x00,0x00,0x00,0x00,0x80,0x83,0x78,0x00,0x00,0x00,0x00,0x00,0x40,
 0x55,0x5f,0x10,0x40,0x00,0x00,0xc0,0x80,0x00,0xe0,0x00,0x00,0x30,0x00,0xe0,
 0x00,0x00,0x00,0x00,0x00,0x00,0x00,0x86,0x0f,0x00,0x00,0x00,0x00,0x00,0x80,
 0x54,0x3d,0x41,0x08,0x00,0x00,0x30,0x80,0x00,0x20,0x00,0x00,0x60,0x00,0xe0,
 0x00,0x00,0x00,0x00,0x00,0x00,0x00,0x50,0x01,0x00,0x00,0x00,0x00,0x00,0xc0,
 0x4a,0x7d,0x08,0x02,0x00,0x06,0x18,0x80,0x00,0x30,0x00,0x00,0x40,0x00,0xe0,
 0x00,0x00,0x00,0x00,0x00,0x00,0x00,0x00,0x00,0x00,0x00,0x00,0x00,0x00,0x00,
 0x29,0xed,0x20,0x04,0x00,0x20,0x06,0x80,0x00,0x10,0x00,0x00,0x40,0x00,0xe0,
 0x00,0x00,0x00,0x00,0x00,0x00,0x00,0x00,0x00,0x00,0x00,0x00,0x00,0x00,0x00,
 0xa5,0x7a,0x0a,0x08,0x01,0xb2,0x03,0x80,0x01,0x10,0x00,0x00,0x40,0x00,0xe0,
 0x00,0x00,0x00,0x00,0x00,0x00,0x00,0x00,0x00,0x00,0x00,0x00,0x00,0x00,0x00,
 0x52,0xed,0x41,0x20,0x02,0xfb,0x01,0x40,0x01,0x10,0x00,0x00,0x40,0x00,0xe0,
 0x00,0x00,0x00,0x00,0x00,0x00,0x00,0x02,0x00,0x00,0x00,0x00,0x00,0x00,0x00,
 0x2a,0xda,0x16,0x42,0x84,0xde,0x00,0x00,0x01,0x10,0x20,0x00,0x40,0x00,0xe0,
 0x00,0x00,0x00,0x00,0x00,0x00,0x00,0x00,0x00,0x00,0x00,0x00,0x00,0x00,0x00,
 0x89,0xea,0xfb,0x8a,0xf0,0x6f,0x01,0x00,0x00,0x30,0x20,0x00,0x40,0x00,0xe0,
 0x00,0x00,0x00,0x00,0x00,0x00,0x00,0x00,0x00,0x00,0x00,0x00,0x00,0x00,0x00,
 0x54,0xda,0xfd,0x5f,0x7f,0xfb,0x01,0x20,0x01,0x20,0x20,0x00,0x60,0x00,0xe0,
 0x00,0x00,0x00,0x00,0x00,0x00,0x00,0x00,0x00,0x00,0x00,0x00,0x00,0x00,0x00,
 0x48,0xb5,0xff,0xff,0xdf,0x5d,0x00,0x40,0x02,0xe0,0x22,0x00,0x60,0x00,0xe0,
 0x00,0x00,0x00,0x00,0x00,0x00,0x00,0x00,0x00,0x00,0x00,0x00,0x00,0x00,0x00,
 0x24,0x54,0x55,0xfb,0xfb,0x6f,0x00,0x10,0x01,0xe0,0x3f,0x00,0x38,0x00,0xe0,
 0x00,0x00,0x00,0x00,0x00,0x00,0x00,0x00,0x00,0x00,0x00,0x00,0x00,0x00,0x00,
 0x90,0xb2,0x6b,0x5d,0xff,0x3b,0x00,0x50,0x03,0xc0,0x3f,0x00,0x3e,0x00,0xe0,
 0x00,0x00,0x00,0x00,0x00,0x00,0x00,0x00,0x00,0x00,0x00,0x00,0x00,0x00,0x00,
 0xa0,0xf4,0x97,0xe4,0xaf,0x05,0x00,0xb0,0x02,0x80,0x3f,0x80,0x1f,0x00,0xe0,
 0x00,0x00,0x00,0x00,0x00,0x00,0x00,0x00,0x00,0x00,0x00,0x00,0x00,0x00,0x00,
 0x40,0xa9,0xa7,0x52,0x9d,0x2b,0x00,0x40,0x00,0x00,0x3f,0x00,0x1b,0x00,0xe0,
 0x00,0x00,0x00,0x00,0x00,0x00,0x00,0x00,0x00,0x00,0x00,0x00,0x00,0x00,0x00,
 0x80,0xe4,0x99,0x5a,0xd5,0x1c,0x00,0x00,0x01,0x00,0x3c,0x00,0x00,0x00,0xe0,
 0x00,0x00,0x00,0x00,0x00,0x00,0x00,0x00,0x00,0x00,0x00,0x00,0x00,0x00,0x00,
 0x00,0x6a,0x4f,0xa5,0xca,0x2a,0x00,0x00,0x01,0x00,0x00,0x00,0x00,0x00,0xe0,
 0x00,0x00,0x00,0x00,0x00,0x00,0x00,0x00,0x00,0x00,0x00,0x00,0x00,0x00,0x00,
 0x00,0xd1,0x33,0x92,0x4a,0x14,0x00,0x02,0x02,0x60,0x00,0x00,0x00,0x00,0xe0,
 0x00,0x00,0x00,0x00,0x00,0x00,0x00,0x00,0x00,0x00,0x00,0x00,0x00,0x00,0x00,
 0x00,0x64,0x57,0x49,0x65,0x13,0x00,0x80,0x00,0x80,0x03,0x00,0x00,0x00,0xe0,
 0x00,0x00,0x00,0x00,0x00,0x00,0x00,0x00,0x00,0x00,0x00,0x00,0x00,0x00,0x00,
 0x00,0xd0,0xae,0xaa,0x44,0x01,0x00,0x40,0x00,0x00,0x1e,0x00,0x00,0x00,0xe0,
 0x00,0x00,0x00,0x00,0x00,0x00,0x00,0x00,0x00,0x00,0x00,0x00,0x00,0x20,0x00,
 0x00,0xc8,0x4b,0x49,0x8a,0x0c,0x00,0x20,0x00,0x00,0xf0,0x00,0x00,0x00,0xe0,
 0x00,0x00,0x00,0x00,0x00,0x00,0x00,0x00,0x00,0x00,0x00,0x00,0x00,0x00,0x00,
 0x00,0xa0,0x5e,0xa5,0x22,0x0f,0x00,0x80,0x00,0x00,0xa0,0x07,0x00,0x00,0xe0,
 0x00,0x00,0x00,0x00,0x00,0x00,0x00,0x00,0x00,0x00,0x00,0x00,0x00,0x00,0x00,
 0x00,0x80,0x95,0x52,0x04,0x03,0x00,0x10,0x00,0x00,0x20,0x3c,0x00,0x00,0xe0,
 0x00,0x00,0x00,0x00,0x00,0x00,0x00,0x00,0x00,0x00,0x00,0x00,0x00,0x00,0x00,
 0x00,0x40,0x67,0x8a,0x02,0x00,0x00,0x28,0x00,0x00,0x20,0xe0,0x01,0x00,0xe0,
 0x00,0x00,0x00,0x00,0x00,0x00,0x00,0x00,0x00,0x00,0x00,0x00,0x00,0x00,0x00,
 0x00,0x80,0x2e,0x55,0x24,0x00,0x00,0x0a,0x00,0x00,0x20,0x00,0x0f,0x00,0xe0,
 0x00,0x00,0x00,0x00,0x00,0x00,0x00,0x00,0x00,0x00,0x00,0x00,0x00,0x00,0x00,
 0x00,0x00,0xda,0x90,0x02,0x02,0x80,0x09,0x00,0x00,0x10,0xe0,0x3f,0x00,0xe0,
 0x00,0x00,0x00,0x00,0x00,0x00,0x00,0x00,0x00,0x00,0x00,0x00,0x00,0x00,0x00,
 0x00,0x00,0x7c,0x45,0x54,0x11,0xe0,0x04,0x00,0x00,0x20,0xfc,0x7f,0x00,0xe0,
 0x00,0x00,0x00,0x00,0x00,0x00,0x00,0x00,0x00,0x00,0x00,0x00,0x00,0x00,0x00,
 0x00,0x00,0xe8,0x21,0x89,0x04,0x38,0x01,0x00,0x00,0xa0,0xff,0x3f,0x00,0xe0,
 0x00,0x00,0x00,0x00,0x00,0x00,0x00,0x00,0x00,0x00,0x00,0x00,0x00,0x00,0x00,
 0x00,0x00,0xa0,0x57,0x52,0x90,0x87,0x00,0x00,0x00,0xf0,0xff,0x07,0x00,0xe0,
 0x00,0x00,0x00,0x00,0x00,0x00,0x00,0x00,0x00,0x00,0x00,0x00,0x00,0x00,0x00,
 0x00,0x00,0x00,0xfe,0x5e,0xd5,0x52,0x00,0x00,0x00,0xfe,0xff,0x00,0x00,0xe0,
 0x00,0x00,0x00,0x00,0x00,0x00,0x00,0x00,0x00,0x00,0x00,0x00,0x00,0x00,0x00,
 0x00,0x00,0x00,0x40,0xff,0x07,0x08,0x00,0x00,0xc0,0xff,0x1f,0x00,0x00,0xe0,
 0x00,0x00,0x00,0x00,0x00,0x00,0x00,0x00,0x00,0x00,0x00,0x00,0x00,0x00,0x00,
 0x00,0x00,0x00,0x00,0x00,0xb8,0x02,0x00,0x00,0xe0,0xff,0x03,0x00,0x00,0xe0,
 0x00,0x00,0x00,0x00,0x00,0x00,0x00,0x00,0x00,0x00,0x00,0x00,0x00,0x00,0x00,
 0x00,0x00,0x00,0x00,0x00,0x00,0x00,0x00,0x00,0xe0,0x7f,0x00,0x00,0x00,0xe0,
 0x00,0x00,0x00,0x00,0x00,0x00,0x00,0x00,0x00,0x00,0x00,0x00,0x00,0x00,0x00,
 0x00,0x00,0x00,0x00,0x00,0x00,0x00,0x00,0x00,0xe0,0x0f,0x00,0x00,0x00,0xe0,
 0x00,0x00,0x00,0x00,0x00,0x00,0x00,0x00,0x00,0x00,0x00,0x00,0x00,0x00,0x00,
 0x00,0x00,0x00,0x00,0x00,0x00,0x00,0x00,0x00,0xe0,0x01,0x00,0x00,0x00,0xe0,
 0x00,0x00,0x00,0x00,0x00,0x00,0x00,0x00,0x00,0x00,0x00,0x00,0x00,0x00,0x00,
 0x00,0x00,0x00,0x00,0x00,0x00,0x00,0x00,0x00,0x20,0x00,0x00,0x00,0x00,0xe0,
 0x00,0x00,0x00,0x00,0x00,0x00,0x00,0x00,0x00,0x00,0x00,0x00,0x00,0x00,0x00,
 0x00,0x00,0x00,0x00,0x00,0x00,0x00,0x00,0x00,0x20,0x00,0x00,0x00,0x00,0xe0,
 0x00,0x00,0x00,0x00,0x00,0x00,0x00,0x00,0x00,0x00,0x00,0x00,0x00,0x00,0x00,
 0x00,0x00,0x00,0x00,0x00,0x00,0x00,0x00,0x00,0x20,0x00,0x00,0x00,0x00,0xe0,
 0x00,0x00,0x00,0x00,0x00,0x00,0x00,0x00,0x00,0x00,0x00,0x00,0x00,0x00,0x00,
 0x00,0x00,0x00,0x00,0x00,0x00,0x00,0x00,0x00,0x00,0x00,0x00,0x00,0x00,0xe0,
 0x00,0x00,0x00,0x00,0x00,0x00,0x00,0x00,0x00,0x00,0x00,0x00,0x00,0x00,0x00,
 0x00,0x00,0x00,0x00,0x00,0x00,0x00,0x00,0x00,0x00,0x00,0x00,0x00,0x00,0xe0,
 0x00,0x00,0x00,0x00,0x00,0x00,0x00,0x00,0x00,0x00,0x00,0x00,0x00,0x00,0x00,
 0x00,0x00,0x00,0x00,0x00,0x00,0x00,0x00,0x00,0x00,0x00,0x00,0x00,0x00,0xe0,
 0x00,0x00,0x00,0x00,0x00,0x00,0x00,0x00,0x00,0x00,0x00,0x00,0x00,0x00,0x00,
 0x00,0x00,0x00,0x00,0x00,0x00,0x00,0x00,0x00,0x00,0x00,0x00,0x00,0x00,0xe0,
 0x00,0x00,0x00,0x00,0x00,0x00,0x00,0x00,0x00,0x00,0x00,0x00,0x00,0x00,0x00,
 0x00,0x00,0x00,0x00,0x00,0x00,0x00,0x00,0x00,0x00,0x00,0x00,0x00,0x00,0xe0
 };
